{"title":"Alpha and Omega R5 READNFO XViD - IMAGiNE","uid":5902189,"size":1446143296,"categoryP":"video","categoryS":"movies","magnet":"?xt=urn:btih:b42df105c9f14375b1c409a14f14aeab2016acba&amp;dn=Alpha+and+Omega+R5+READNFO+XViD+-+IMAGiNE&amp;tr=udp%3A%2F%2Ftracker.openbittorrent.com%3A80&amp;tr=udp%3A%2F%2Fopen.demonii.com%3A1337&amp;tr=udp%3A%2F%2Ftracker.coppersurfer.tk%3A6969&amp;tr=udp%3A%2F%2Fexodus.desync.com%3A6969","seeders":0,"leechers":1,"uploader":"IwannaFan2","files":3,"time":1287721211,"description":"Filename:\nAlpha and Omega R5 READNFO XViD - IMAGiNE\n &lt;a href=&quot;\nhttp://www.imdb.com/title/tt1213012/&quot; rel=&quot;nofollow&quot; target=&quot;_NEW&quot;&gt;\nhttp://www.imdb.com/title/tt1213012/&lt;/a&gt;\n\nDETAILS:\n\nGeneral\nComplete name                    : Alpha and Omega R5 READNFO XViD - IMAGiNE\nFormat                           : AVI\nFormat/Info                      : Audio Video Interleave\nFile size                        : 1.32 GiB\nDuration                         : 1h 26mn\nOverall bit rate                 : 2 185 Kbps\nWriting library                  : VirtualDub build 30091/release\n\nVideo\nFormat                           : MPEG-4 Visual\nFormat profile                   : Streaming Video@L1\nFormat settings, BVOP            : Yes\nFormat settings, QPel            : No\nFormat settings, GMC             : No warppoints\nFormat settings, Matrix          : Default\nMuxing mode                      : Packed bitstream\nCodec ID                         : XVID\nCodec ID/Hint                    : XviD\nDuration                         : 1h 26mn\nBit rate                         : 2 047 Kbps\nWidth                            : 720 pixels\nHeight                           : 304 pixels\nDisplay aspect ratio             : 2.35\nFrame rate                       : 25.000 fps\nResolution                       : 24 bits\nColorimetry                      : 4:2:0\nScan type                        : Progressive\nBits/(Pixel*Frame)               : 0.374\nStream size                      : 1.24 GiB (94%)\nWriting library                  : XviD 50\n\nAudio\nFormat                           : MPEG Audio\nFormat version                   : Version 1\nFormat profile                   : Layer 3\nCodec ID                         : 55\nCodec ID/Hint                    : MP3\nDuration                         : 1h 26mn\nBit rate mode                    : Constant\nBit rate                         : 128 Kbps\nChannel(s)                       : 2 channels\nSampling rate                    : 44.1 KHz\nResolution                       : 16 bits\nStream size                      : 79.1 MiB (6%)\nAlignment                        : Split accross interleaves\nInterleave, duration             : 40 ms (1.00 video frame)\nInterleave, preload duration     : 500 ms\n\nNOTES:\n\nIMAGiNE bringing you another release..........Alpha &amp; Omega\n\nThe audio....took the cam audio from our cam release and synced it to the R5 encode... for the\n\nending i stripped the russian audio for that so the audio would be complete.There are two small\n\nspots in the middle of the movie that have spanish audio as there is no other english audio out for\n\nit...\nFor the video we wrote a script to lower the chroma,increased the sharpness,make it brighter and\n\nalso a rgbeq filter to\ncorrect the colours.\n\nenjoy.","torrent":{"xt":"urn:btih:b42df105c9f14375b1c409a14f14aeab2016acba","amp;dn":"Alpha+and+Omega+R5+READNFO+XViD+-+IMAGiNE","amp;tr":["udp%3A%2F%2Ftracker.openbittorrent.com%3A80","udp%3A%2F%2Fopen.demonii.com%3A1337","udp%3A%2F%2Ftracker.coppersurfer.tk%3A6969","udp%3A%2F%2Fexodus.desync.com%3A6969"],"infoHash":"b42df105c9f14375b1c409a14f14aeab2016acba","infoHashBuffer":{"type":"Buffer","data":[180,45,241,5,201,241,67,117,177,196,9,161,79,20,174,171,32,22,172,186]},"announce":[],"urlList":[]}}